<?xml version="1.0" encoding="UTF-8" standalone="no"?>
<!-- Created with Inkscape (http://www.inkscape.org/) -->

<svg
   xmlns:dc="http://purl.org/dc/elements/1.1/"
   xmlns:cc="http://creativecommons.org/ns#"
   xmlns:rdf="http://www.w3.org/1999/02/22-rdf-syntax-ns#"
   xmlns:svg="http://www.w3.org/2000/svg"
   xmlns="http://www.w3.org/2000/svg"
   xmlns:sodipodi="http://sodipodi.sourceforge.net/DTD/sodipodi-0.dtd"
   xmlns:inkscape="http://www.inkscape.org/namespaces/inkscape"
   version="1.1"
   id="svg2"
   width="640"
   height="640"
   viewBox="0 0 640 640"
   sodipodi:docname="calo.svg"
   inkscape:version="0.92.4 5da689c313, 2019-01-14"
   inkscape:export-filename="icon-512x512.png"
   inkscape:export-xdpi="76.800003"
   inkscape:export-ydpi="76.800003">
  <metadata
     id="metadata8">
    <rdf:RDF>
      <cc:Work
         rdf:about="">
        <dc:format>image/svg+xml</dc:format>
        <dc:type
           rdf:resource="http://purl.org/dc/dcmitype/StillImage" />
        <dc:title />
      </cc:Work>
    </rdf:RDF>
  </metadata>
  <defs
     id="defs6" />
  <sodipodi:namedview
     pagecolor="#ffffff"
     bordercolor="#666666"
     borderopacity="1"
     objecttolerance="10"
     gridtolerance="10"
     guidetolerance="10"
     inkscape:pageopacity="0"
     inkscape:pageshadow="2"
     inkscape:window-width="1920"
     inkscape:window-height="1024"
     id="namedview4"
     showgrid="false"
     inkscape:zoom="1.0020214"
     inkscape:cx="282.52659"
     inkscape:cy="330.46491"
     inkscape:window-x="0"
     inkscape:window-y="28"
     inkscape:window-maximized="1"
     inkscape:current-layer="svg2" />
  <g
     id="g4621"
     transform="matrix(0.90503179,0,0,0.90503179,30.989779,28.957996)">
    <path
       sodipodi:nodetypes="csscsscccsccscccssssssscssccccscsscsccssssssssccscscsssscscssscsscccssssssccssscssssscccsscccccscssscccsssssssssscccsccssssssscccssscsscssscccscsccscscsccssccccccsscsccccscscccsccsccssccc"
       inkscape:connector-curvature="0"
       id="path4535-7"
       d="m 304.54577,508.17067 c -10.51396,-0.85252 -10.59221,-0.86338 -23.03644,-3.19717 -4.8329,-0.90636 -8.78709,-2.06594 -8.78709,-2.57681 0,-1.72234 6.85661,-9.31334 11.47365,-12.70257 2.52031,-1.85007 6.84762,-4.30458 9.61626,-5.45448 6.6597,-2.76595 13.10851,-6.50048 13.10851,-7.59118 0,-0.48169 -1.23265,-2.43351 -2.73921,-4.33737 -1.50657,-1.90384 -4.35858,-6.4539 -6.3378,-10.11123 -1.97922,-3.65734 -3.6592,-6.74807 -3.73328,-6.86831 -0.62528,-1.01483 -28.34972,9.43983 -44.94822,16.9496 -14.71478,6.6575 -19.1968,7.78656 -31.06239,7.82485 -10.00252,0.0323 -12.31566,-0.28025 -18.87584,-2.55018 -9.23352,-3.19497 -11.26727,-4.25773 -10.50573,-5.48994 0.61473,-0.99465 5.98291,-0.59173 13.7073,1.02884 5.54885,1.16413 16.51383,1.17798 21.49794,0.0272 3.86128,-0.89157 13.78109,-6.34152 24.08121,-13.23021 10.55419,-7.0586 25.00601,-14.61279 33.97967,-17.76169 5.75752,-2.02034 6.74433,-3.81902 1.42493,-2.59727 -1.95928,0.45 -9.7608,0.81818 -17.3367,0.81818 -15.54268,0 -18.78526,-0.7432 -32.25904,-7.39386 -14.98375,-7.39596 -23.64198,-18.06655 -28.47736,-35.09614 -4.79552,-16.8892 -2.93462,-37.50063 4.22186,-46.76138 1.32648,-1.71651 1.16137,-2.14326 -2.20511,-5.69974 -6.44259,-6.8062 -7.31162,-10.17641 -7.23593,-28.06192 0.077,-18.17539 2.34315,-34.803 5.52174,-40.51377 3.35031,-6.0193 6.82591,-7.22381 19.11076,-6.62308 5.74723,0.28105 11.73519,0.77358 13.30659,1.09452 2.33077,0.47605 3.48313,0.0244 6.25561,-2.45156 l 3.39855,-3.03511 -1.19178,-6.77463 c -0.65547,-3.72604 -1.4857,-7.52272 -1.84496,-8.43705 -0.80558,-2.05027 0.61656,-2.1422 4.23034,-0.27345 3.22246,1.66641 15.02091,4.83279 20.96856,5.62741 26.5092,3.54166 63.94696,4.37949 88.34591,1.97709 18.74337,-1.84552 22.9878,-2.70224 38.12305,-7.69495 1.33262,-0.4396 1.44524,-7.2e-4 0.80382,3.13244 -3.44344,16.82028 -3.43524,17.01315 0.82666,19.42964 1.94019,1.10008 4.1674,1.40469 7.83959,1.07218 4.70949,-0.42644 5.46635,-0.84427 9.24441,-5.10353 5.1017,-5.75148 8.02288,-11.16903 10.81868,-20.06405 1.79384,-5.70721 2.15433,-8.92816 2.10008,-18.76433 -0.13982,-25.35292 -8.44509,-40.91189 -29.45257,-55.17597 -12.89935,-8.75868 -15.25388,-9.77453 -22.72953,-9.80665 -11.56248,-0.0497 -19.14985,4.91645 -20.90827,13.68499 -1.24424,6.20447 -5.71733,12.60485 -12.04216,17.23064 -5.5776,4.0793 -10.06329,6.43809 -25.19243,13.24738 -3.2424,1.45934 -8.78428,4.86765 -12.31529,7.57401 -3.53101,2.70637 -7.82469,5.59052 -9.54151,6.40921 -1.71682,0.81871 -3.12149,1.75542 -3.12149,2.08161 0,0.32619 3.31297,0.21233 7.36215,-0.25302 4.04919,-0.46535 16.33925,-0.62721 27.31124,-0.3597 24.58607,0.59945 37.95645,2.51377 59.84724,8.56865 5.54617,1.53406 10.92449,5.346 10.92449,7.74286 0,4.68584 -14.17481,9.01951 -35.9049,10.97724 -23.02772,2.07461 -77.93091,1.17748 -91.38921,-1.49334 -1.30619,-0.25922 -4.85403,-0.92312 -7.8841,-1.47534 -12.95196,-2.36045 -19.48565,-6.72314 -16.71442,-11.16057 1.76852,-2.83186 9.63366,-6.35668 18.4238,-8.25676 8.62006,-1.86332 12.48727,-3.16488 9.71817,-3.27077 -2.68495,-0.10267 -8.9166,-4.47082 -13.28591,-9.31291 -7.5918,-8.41328 -11.20216,-11.61613 -15.21509,-13.49775 -5.66397,-2.65577 -2.77842,-2.39879 5.62217,0.5007 3.90914,1.34927 7.73463,2.21257 8.50106,1.91845 0.86967,-0.33372 4.11292,1.98672 8.62743,6.17263 8.32698,7.72088 9.83232,8.45485 17.34039,8.45485 4.39363,0 6.85116,-0.67082 12.12721,-3.31033 8.81788,-4.4114 10.10087,-5.87194 8.61534,-9.80756 -1.01522,-2.68964 -0.73744,-4.26988 2.49468,-14.191 5.62209,-17.25737 8.97766,-22.88828 20.52654,-34.4452 8.27193,-8.27769 11.45822,-10.75302 18.66647,-14.50135 17.65279,-9.17959 35.10734,-10.86648 51.60922,-4.9878 6.9477,2.47508 18.06112,8.85084 24.41857,14.00892 14.85121,12.04946 24.20284,28.2176 27.89915,48.2352 1.59983,8.66394 1.66852,37.99042 0.10569,45.12291 -2.14069,9.76982 -6.76172,22.47414 -11.1298,30.59855 -2.30638,4.28979 -4.00328,8.35085 -3.77088,9.02459 1.28848,3.73521 3.34644,25.98365 3.34644,36.17798 0,12.80463 -1.04494,17.42354 -5.3488,23.64315 -2.4303,3.51209 -7.87786,6.46631 -41.88493,22.71428 -4.81828,2.30209 -8.77248,4.42876 -8.7871,4.72594 -0.0146,0.29718 4.03927,1.26074 9.00863,2.14125 9.3923,1.66419 11.99092,2.7334 19.93846,8.20371 13.78099,9.4855 18.40785,21.21718 14.14758,35.87202 -3.77309,12.97893 -11.8167,21.63852 -26.14717,28.14952 -11.86595,5.39125 -14.22124,5.7879 -35.9732,6.0582 -20.17252,0.25068 -20.43512,0.28014 -21.32255,2.39241 -0.49417,1.17624 -2.5671,5.76405 -4.60652,10.19515 -2.47237,5.37179 -3.42962,8.49791 -2.87258,9.38101 0.4595,0.72846 4.02861,3.04183 7.93137,5.14083 14.12599,7.59733 20.87028,13.98003 20.87028,19.75137 0,2.5186 -0.27036,2.66521 -6.88718,3.73493 -3.78795,0.61239 -8.4343,1.50739 -10.32522,1.9889 -3.30015,0.84034 -28.7344,2.87609 -32.66029,2.61411 -1.04495,-0.0697 -6.17472,-0.4734 -11.39947,-0.89705 z m -1.86232,-9.16002 c 0.92458,-1.4368 3.31409,-4.58246 5.31002,-6.99034 1.99592,-2.40789 3.35478,-4.65216 3.01966,-4.98727 -0.33511,-0.33512 -2.68966,-0.6093 -5.23234,-0.6093 -5.61334,0 -11.69713,2.8875 -18.23913,8.65673 l -4.65468,4.10483 2.75476,1.17602 c 1.51513,0.64682 5.5911,1.1953 9.05772,1.21887 5.85664,0.0398 6.42198,-0.14213 7.98399,-2.56954 z m 16.54722,-29.64671 c 5.29057,-5.29057 11.19553,-24.75172 16.15331,-53.23695 1.13669,-6.53095 2.65639,-15.08056 3.3771,-18.99913 0.72072,-3.91856 1.77429,-10.75825 2.34129,-15.19929 0.56699,-4.44105 1.43904,-10.21203 1.93788,-12.82441 0.49884,-2.61238 2.00414,-12.23068 3.34511,-21.37401 6.12603,-41.76997 12.18759,-73.96208 14.91851,-79.23008 0.90132,-1.73866 0.57482,-1.78409 -8.43615,-1.17376 -26.21196,1.77538 -45.25524,1.71066 -60.1964,-0.2046 -8.09838,-1.0381 -15.57928,-2.09843 -16.62424,-2.35629 -1.04495,-0.25785 -5.10601,-1.18626 -9.02458,-2.06311 -3.91857,-0.87687 -8.11629,-1.82394 -9.32826,-2.10461 -2.61439,-0.60544 -3.04456,-3.979 4.1454,32.50997 2.77968,14.10685 5.53692,28.2137 6.1272,31.34855 0.5903,3.13486 1.28522,6.76844 1.54427,8.07463 3.99095,20.12235 11.22669,57.21966 12.22893,62.6971 2.35165,12.8523 7.01861,29.59661 12.31184,44.17296 9.15281,25.2048 18.64327,36.49855 25.17879,29.96303 z m 52.287,-33.59583 c 0.78371,-0.1853 3.13485,-0.67997 5.22476,-1.09927 5.81655,-1.16699 13.27761,-4.74436 17.04503,-8.17264 8.05869,-7.33324 10.75041,-17.77756 6.39702,-24.8215 -4.21436,-6.81898 -16.57396,-10.00578 -28.89,-7.44897 l -5.27474,1.09502 -0.66512,4.4659 c -0.36582,2.45623 -3.18984,11.4809 -6.27562,20.05481 -3.08577,8.5739 -5.6105,16.01121 -5.6105,16.52735 0,0.84061 13.9114,0.37762 18.04917,-0.6007 z m -94.05274,-23.93456 c -1.20683,-3.17423 -3.31119,-12.35656 -5.11183,-22.30533 -2.83322,-15.65406 -2.67441,-15.1993 -5.3079,-15.1993 -2.07869,0 -6.72884,-1.93642 -19.08558,-7.94762 -4.97664,-2.421 -9.55588,-4.40181 -10.17607,-4.40181 -2.38541,0 -5.97626,9.31054 -6.1528,15.95327 -0.15233,5.73147 0.19804,7.06411 3.4919,13.28139 7.5372,14.22677 21.33286,22.69808 37.33859,22.92798 l 5.91371,0.0849 z m 110.20199,-57.13251 c 2.35114,-1.07575 7.05343,-3.2506 10.44952,-4.83301 3.39609,-1.5824 10.35668,-4.82555 15.46796,-7.20699 8.72636,-4.06577 9.40989,-4.59359 11.20535,-8.65251 1.59967,-3.61634 1.8877,-6.14679 1.7628,-15.48707 -0.0821,-6.14044 -0.42335,-12.83654 -0.75828,-14.8802 l -0.60898,-3.71576 -4.44414,3.71576 c -10.96597,9.16869 -21.56128,15.22076 -33.32908,19.03765 -4.93779,1.60157 -5.56237,2.10607 -6.31656,5.10216 -1.30251,5.17433 -4.74805,21.14841 -5.0404,23.36812 -0.3441,2.6126 3.88143,7.05763 5.86387,6.16848 0.81022,-0.3634 3.3968,-1.54088 5.74794,-2.61663 z M 264.17263,348.5922 c 0,-5.00898 -0.73268,-5.72812 -4.31225,-4.23248 -1.74827,0.73048 -4.7671,2.40751 -6.7085,3.72673 l -3.52984,2.39858 5.1379,2.29562 5.13789,2.29561 2.1374,-1.93873 c 1.22621,-1.11224 2.1374,-3.04994 2.1374,-4.54533 z m -34.82777,-19.86117 c 1.12986,-0.78372 2.19678,-1.74555 2.37094,-2.1374 0.17416,-0.39186 0.69408,-0.71247 1.15539,-0.71247 0.46131,0 3.44351,-1.68354 6.62711,-3.7412 3.1836,-2.05767 8.55361,-4.66142 11.93334,-5.78612 l 6.14498,-2.04492 -0.58181,-3.47595 c -0.32,-1.91178 -0.95721,-4.7584 -1.41603,-6.32582 -0.45882,-1.56743 -1.11912,-5.09414 -1.46732,-7.83714 -0.61937,-4.87904 -0.70102,-4.98727 -3.76269,-4.98727 -1.88295,0 -4.19922,-0.88553 -5.81484,-2.22309 -3.93017,-3.25372 -8.28044,-4.48724 -17.97033,-5.09551 -7.5745,-0.4755 -8.71189,-0.34269 -9.25821,1.08099 -1.15992,3.02271 -3.48043,24.65882 -3.48043,32.45109 0,8.20583 1.81495,15.24434 4.43939,17.2163 1.27761,0.95998 2.17622,0.6368 5.28284,-1.89991 2.05886,-1.68116 4.66781,-3.69787 5.79767,-4.48158 z M 330.25008,185.01224 c 3.55193,-1.85885 8.56623,-7.15754 9.40328,-9.93661 0.56796,-1.88563 0.3071,-2.1374 -2.21458,-2.1374 -2.3758,0 -3.60554,0.97103 -7.28421,5.75174 -2.43422,3.16344 -5.30801,6.57358 -6.3862,7.57805 -1.95995,1.82598 -1.95977,1.82618 0.8635,1.01647 1.55311,-0.44542 4.0813,-1.46793 5.61821,-2.27225 z"
       style="fill:#000000;stroke-width:0.94995606" />
    <path
       id="path4602"
       d="M 321.0625,8.34375 A 314.08289,314.08289 0 0 0 6.9804688,322.42773 314.08289,314.08289 0 0 0 321.0625,636.50977 314.08289,314.08289 0 0 0 635.14453,322.42773 314.08289,314.08289 0 0 0 321.0625,8.34375 Z m 0,82.59375 A 231.49071,231.49071 0 0 1 552.55273,322.42773 231.49071,231.49071 0 0 1 321.0625,553.91797 231.49071,231.49071 0 0 1 89.572266,322.42773 231.49071,231.49071 0 0 1 321.0625,90.9375 Z"
       style="opacity:1;fill:#59ad4e;fill-opacity:1;stroke:#000000;stroke-width:30;stroke-linecap:butt;stroke-linejoin:bevel;stroke-miterlimit:4;stroke-dasharray:none;stroke-opacity:1;paint-order:markers stroke fill"
       inkscape:connector-curvature="0" />
  </g>
</svg>
